<?xml version="1.0" encoding="UTF-8" standalone="no"?>
<svg xmlns="http://www.w3.org/2000/svg"
   version="1.1">
  <symbol viewBox="0 0 20 20" id="rabbit">
    <path d="m 11.087639,2.3492093 c -0.71788,2.30601 2.42052,3.75916 2.17947,4.53177 -1.25214,0.48202 -2.63709,-0.2236 -3.9528101,0.16539 -1.07773,-0.0722 -2.1333,0.19312 -3.09527,0.66545 -1.15587,0.3734 -1.9157,1.3497796 -2.79992,2.1145596 -0.65256,0.2954601 -0.84569,1.1711001 -1.28172,1.5028801 -0.69174,-0.0963 -2.35917,-0.0583 -1.50109,1.19057 0.22992,0.44865 1.08216,1.19119 1.42972,0.85908 -0.44793,0.53778 -0.89783,0.26704 -1.18898,0.92707 -0.39553,0.78858 -0.47926,1.71615 -0.8489,2.49527 -0.0998,0.55639 0.0471,2.09913 0.74539,1.74943 1.37029,-0.84484 0.32822,-3.69616 3.63098,-3.41801 0.86054,-0.0816 1.46716,-0.84104 2.12578,-1.33249 0.51244,-0.1573 1.12815,-0.52619 1.56518,-0.769 0.98151,-0.52608 4.4155701,-1.10847 4.7162901,-0.93274 1.01474,0.28762 2.1184,0.18601 3.11214,0.59735 0.51006,0.2746 2.10889,1.06861 1.98802,-0.0196 -0.0654,-0.47164 -1.27251,-1.0394 -0.22187,-0.75756 0.72966,0.10305 1.85978,0.76352 2.30995,-0.0831 -0.036,-0.91654 -0.97601,-0.36201 -1.41541,-0.65917 -0.47679,-0.17645 -0.67667,-0.32411 -1.28161,-0.45635 -1.12547,-0.13149 -0.18052,-0.9508801 0.4874,-0.9172201 1.10812,-0.0544 0.76406,-1.6018096 0.29562,-2.1257396 -0.46928,-0.98349 -1.47412,-1.51484 -2.48552,-1.77597 -0.44251,-0.91653 -0.80273,-1.8987 -1.45117,-2.69089 -0.45217,-0.44259 -1.51802,-0.84326 -1.90531,-0.4294 -0.20245,0.0665 -0.83181,-1.4452 -1.15636,-0.43156 z" />
  </symbol>
  <symbol viewBox="0 0 20 20" id="turtle">
    <path d="m 9.6846916,7.3369728 c -2.06538,0.0403 -4.3537,0.20612 -5.98704,1.62776 -1.2239,0.99179 -2.27951,2.3670102 -2.41316,3.9858202 -0.39859999,-0.0922 -1.92020999,-0.0787 -0.98613999,0.46482 0.85475999,0.48979 1.96958999,0.27109 2.77920999,0.86828 -0.0409,0.48216 -1.27902,0.21775 -1.57485,0.78187 -0.57116999,0.31111 -0.40888,2.02161 0.38413,1.56534 0.76742,-0.10962 1.54965,-0.0438 2.31452,-0.17755 0.6295,-0.25734 0.56428,-1.16377 1.37217,-0.81089 1.22904,0.0316 2.4665,-0.24441 3.686,10e-4 1.7719504,0.0776 3.5549404,-0.17648 5.2416204,-0.72194 0.2795,0.73494 0.62784,1.64609 1.44217,1.9097 0.91652,0.0729 1.17879,-0.98901 0.94229,-1.70548 -0.12998,-0.87704 -0.41229,-1.72181 -0.71537,-2.552 1.03079,-0.75132 2.50235,-0.0872 3.50671,-0.88436 0.77101,-0.63203 0.0228,-1.7266002 -0.79051,-1.8185002 -1.13435,-0.16034 -2.133,0.5820902 -3.23731,0.6640702 -1.65092,-1.5527602 -3.54259,-3.2559302 -5.9644404,-3.1983302 z" />
  </symbol>
</svg>
